<svg id="Camada_1" data-name="Camada 1" xmlns="http://www.w3.org/2000/svg" viewBox="0 0 250 200"><defs><style>.cls-1,.cls-5{fill:#82bc00;}.cls-2{fill:#01667d;}.cls-3{fill:#f7911e;}.cls-4{fill:#2faba3;}.cls-5{font-size:24px;font-family:Montserrat-Bold, Montserrat;font-weight:700;}.cls-6{letter-spacing:-0.01em;}.cls-7{letter-spacing:0.01em;}.cls-8{letter-spacing:-0.01em;}.cls-9{letter-spacing:-0.01em;}.cls-10{letter-spacing:0em;}.cls-11{letter-spacing:0.01em;}</style></defs><title>Prancheta 1</title><path class="cls-1" d="M146.7,47.1a5.12,5.12,0,0,1-3.9-1.8,5.07,5.07,0,0,1-1.4-4V39.9a14.07,14.07,0,0,0-3.9-9.9l-.8-.8a15.7,15.7,0,0,0-4.5-2.9,15.12,15.12,0,0,0-5.3-.9,14,14,0,0,0-5.6,1A14.64,14.64,0,0,0,112.4,40a13.34,13.34,0,0,0,1.1,5.6,14.23,14.23,0,0,0,3.1,4.7,4.86,4.86,0,0,1,1.6,3.9,5.46,5.46,0,0,1-5.5,5.5,5.18,5.18,0,0,1-4-1.5A24.59,24.59,0,0,1,101.3,40a24.7,24.7,0,0,1,7.6-18.1,24.7,24.7,0,0,1,18.2-7.6,25.89,25.89,0,0,1,17.5,6.9l.1.1.9.9.1.1a23.55,23.55,0,0,1,5.3,8.2,29.8,29.8,0,0,1,1.9,9.6,9.49,9.49,0,0,1-.2,2,4.64,4.64,0,0,1-.4,2.1,5.52,5.52,0,0,1-1.4,1.7A5,5,0,0,1,146.7,47.1Z"/><path class="cls-2" d="M195.8,74.6a25.16,25.16,0,0,0-5.6-8.5A24.83,24.83,0,0,0,172,58.6,24.4,24.4,0,0,0,154.8,65l-1,1-.8,1a19.57,19.57,0,0,0-3.6,5.5,6.76,6.76,0,0,0-.4,4.1,4.43,4.43,0,0,0,1.8,2.6,6.3,6.3,0,0,0,2.9,1,5.58,5.58,0,0,0,3.1-.6,5.65,5.65,0,0,0,2.4-2.2,12.29,12.29,0,0,1,1.9-2.7l.6-.6.8-.8a12.77,12.77,0,0,1,9.4-3.3,13.8,13.8,0,0,1,10.3,4.2,13.94,13.94,0,0,1,3.2,4.8,14.3,14.3,0,0,1,0,11,13.94,13.94,0,0,1-3.2,4.8A13.51,13.51,0,0,1,171.9,99a13,13,0,0,1-10-4L146,78.7a6.42,6.42,0,0,0-2.1-1.4,7,7,0,0,0-.8-1L128.9,62.1a5.51,5.51,0,0,0-4-1.5,5.28,5.28,0,0,0-3.9,1.5,4.56,4.56,0,0,0-1.5,4,5.68,5.68,0,0,0,1.5,4l14.3,14.3a4.08,4.08,0,0,0,1.8,1.2,10.59,10.59,0,0,0,1,1.2L154.3,103a28.42,28.42,0,0,0,8.2,5.4,25.39,25.39,0,0,0,9.7,1.8,24.48,24.48,0,0,0,18.1-7.6,26.48,26.48,0,0,0,5.7-8.5,27.33,27.33,0,0,0,1.9-9.6A30.2,30.2,0,0,0,195.8,74.6Z"/><path class="cls-1" d="M144.5,61.3a4.93,4.93,0,0,1-3.9-1.6l-.4-.4a5.85,5.85,0,0,1-1.7-4,6.31,6.31,0,0,1,1.7-3.9,5.86,5.86,0,0,1,3.9-1.7,6,6,0,0,1,4,1.8l.4.4a5.33,5.33,0,0,1,1.7,3.8,5.66,5.66,0,0,1-1.7,4A6,6,0,0,1,144.5,61.3Z"/><path class="cls-3" d="M109.7,115.5a5.12,5.12,0,0,1,3.9,1.8,5.07,5.07,0,0,1,1.4,4v1.4a14.07,14.07,0,0,0,3.9,9.9l.8.8a15.7,15.7,0,0,0,4.5,2.9,15.12,15.12,0,0,0,5.3.9,14,14,0,0,0,5.6-1,14.7,14.7,0,0,0,4.7-23.8,4.86,4.86,0,0,1-1.6-3.9,5.46,5.46,0,0,1,5.5-5.5,5.18,5.18,0,0,1,4,1.5,25.71,25.71,0,0,1-.2,36.3,25.09,25.09,0,0,1-18.2,7.6,25.89,25.89,0,0,1-17.5-6.9l-.1-.1-.9-.9-.1-.1a23.55,23.55,0,0,1-5.3-8.2,29.8,29.8,0,0,1-1.9-9.6,9.49,9.49,0,0,1,.2-2,4.64,4.64,0,0,1,.4-2.1,5.52,5.52,0,0,1,1.4-1.7A5.45,5.45,0,0,1,109.7,115.5Z"/><path class="cls-3" d="M111.9,101.4a4.63,4.63,0,0,1,3.9,1.6l.4.4a5.85,5.85,0,0,1,1.7,4,6.08,6.08,0,0,1-1.7,3.9,5.86,5.86,0,0,1-3.9,1.7,6,6,0,0,1-4-1.8l-.4-.4a5.33,5.33,0,0,1-1.7-3.8,5.66,5.66,0,0,1,1.7-4A5.76,5.76,0,0,1,111.9,101.4Z"/><path class="cls-4" d="M135.4,92.7,121.1,78.4l-.3-.3L104.6,62a28.42,28.42,0,0,0-8.2-5.4,25.39,25.39,0,0,0-9.7-1.8,24.48,24.48,0,0,0-18.1,7.6A25,25,0,0,0,63,71a27.33,27.33,0,0,0-1.9,9.6,25.94,25.94,0,0,0,7.5,18.2,24.83,24.83,0,0,0,18.2,7.5A24.4,24.4,0,0,0,104,99.9l1-1,.8-1a19.57,19.57,0,0,0,3.6-5.5,6.76,6.76,0,0,0,.4-4.1,4.43,4.43,0,0,0-1.8-2.6,6.3,6.3,0,0,0-2.9-1,5.75,5.75,0,0,0-3.1.6,5.65,5.65,0,0,0-2.4,2.2,12.29,12.29,0,0,1-1.9,2.7l-1.5,1.5A12.77,12.77,0,0,1,86.8,95a13.8,13.8,0,0,1-10.3-4.2A13.94,13.94,0,0,1,73.3,86a14.3,14.3,0,0,1,0-11,13.94,13.94,0,0,1,3.2-4.8A13.51,13.51,0,0,1,86.8,66a13,13,0,0,1,10,4l16,16.1a10.63,10.63,0,0,0,1.1.9l13.6,13.6a5.51,5.51,0,0,0,4,1.5,5.28,5.28,0,0,0,3.9-1.5,4.56,4.56,0,0,0,1.5-4A5.28,5.28,0,0,0,135.4,92.7Z"/><text class="cls-5" transform="translate(16.5 177.67)">R<tspan class="cls-6" x="17.64" y="0">e</tspan><tspan class="cls-7" x="32.42" y="0">a</tspan><tspan x="47.38" y="0">dable </tspan><tspan class="cls-8" x="124.51" y="0">P</tspan><tspan class="cls-9" x="141.84" y="0">r</tspan><tspan class="cls-10" x="151.97" y="0">oje</tspan><tspan class="cls-11" x="190.2" y="0">c</tspan><tspan x="204.57" y="0">t</tspan></text></svg>